<svg width="329" height="148" viewBox="0 0 329 148" xmlns="http://www.w3.org/2000/svg"><path d="M27.596 86.977c-6.836 0-12.142-2.458-15.918-7.373h-.684c.456 4.557.684 7.324.684 8.3v22.12H.203v-78.03H9.48c.26 1.01.798 3.42 1.612 7.228h.586c3.58-5.47 8.952-8.203 16.113-8.203 6.74 0 11.99 2.44 15.75 7.32 3.76 4.88 5.64 11.73 5.64 20.55s-1.91 15.7-5.74 20.65c-3.82 4.95-9.1 7.42-15.84 7.42zm-2.784-46.582c-4.557 0-7.885 1.334-9.985 4.003-2.1 2.67-3.15 6.934-3.15 12.793v1.71c0 6.58 1.042 11.34 3.126 14.29 2.083 2.95 5.485 4.42 10.205 4.42 3.97 0 7.03-1.63 9.18-4.88 2.148-3.25 3.222-7.89 3.222-13.91 0-6.05-1.066-10.63-3.198-13.74-2.132-3.11-5.265-4.66-9.4-4.66zM89.9 31.02c2.312 0 4.216.162 5.713.488L94.49 42.2c-1.627-.39-3.32-.585-5.078-.585-4.59 0-8.31 1.498-11.157 4.492-2.848 2.995-4.273 6.885-4.273 11.67V86H62.508V31.996h8.984l1.514 9.522h.586c1.79-3.223 4.126-5.778 7.007-7.666 2.88-1.888 5.98-2.832 9.3-2.832zm61.62 27.88c0 8.822-2.26 15.707-6.786 20.655-4.524 4.948-10.823 7.422-18.896 7.422-5.046 0-9.505-1.14-13.38-3.418-3.873-2.28-6.85-5.56-8.935-9.82-2.083-4.27-3.125-9.21-3.125-14.85 0-8.76 2.247-15.6 6.74-20.51 4.49-4.92 10.822-7.38 18.992-7.38 7.82 0 14 2.51 18.56 7.54 4.56 5.03 6.84 11.81 6.84 20.33zm-39.305 0c0 12.468 4.606 18.702 13.818 18.702 9.115 0 13.672-6.234 13.672-18.702 0-12.337-4.59-18.505-13.77-18.505-4.817 0-8.308 1.595-10.473 4.785-2.165 3.19-3.247 7.763-3.247 13.72zm46.972 51.123c-3.45 0-6.315-.406-8.593-1.22V99.72c2.213.587 4.476.88 6.787.88 4.89 0 7.33-2.767 7.33-8.3V31.995h11.48V93.08c0 5.567-1.45 9.782-4.37 12.647-2.91 2.864-7.12 4.296-12.62 4.296zm4.834-92.334c0-2.05.57-3.63 1.69-4.74 1.13-1.11 2.73-1.66 4.81-1.66 2.02 0 3.59.55 4.71 1.66 1.13 1.1 1.69 2.68 1.69 4.73 0 1.95-.56 3.49-1.68 4.61-1.12 1.12-2.69 1.68-4.71 1.68-2.08 0-3.68-.56-4.81-1.69-1.12-1.12-1.68-2.66-1.68-4.62zm52.15 69.28c-8.4 0-14.96-2.45-19.7-7.35-4.73-4.9-7.1-11.65-7.1-20.24 0-8.83 2.2-15.76 6.59-20.8 4.4-5.05 10.44-7.57 18.12-7.57 7.13 0 12.76 2.16 16.9 6.49 4.14 4.33 6.2 10.28 6.2 17.87v6.2h-35.99c.17 5.24 1.58 9.27 4.25 12.08 2.67 2.81 6.43 4.22 11.28 4.22 3.19 0 6.16-.3 8.91-.91 2.75-.6 5.71-1.6 8.86-3v9.33c-2.8 1.33-5.63 2.28-8.49 2.83-2.86.55-6.13.83-9.81.83zm-2.1-47.27c-3.64 0-6.56 1.15-8.76 3.46s-3.51 5.68-3.93 10.1h24.51c-.06-4.46-1.14-7.84-3.22-10.13s-4.95-3.45-8.59-3.45zm57.91 47.26c-8.17 0-14.38-2.39-18.62-7.16-4.25-4.77-6.37-11.62-6.37-20.54 0-9.08 2.23-16.06 6.67-20.95 4.45-4.88 10.87-7.32 19.26-7.32 5.7 0 10.83 1.06 15.38 3.17l-3.46 9.23c-4.85-1.89-8.85-2.835-12.01-2.835-9.34 0-14.01 6.2-14.01 18.6 0 6.05 1.16 10.6 3.49 13.65 2.33 3.04 5.74 4.56 10.23 4.56 5.11 0 9.95-1.27 14.5-3.81V83.6c-2.05 1.206-4.24 2.068-6.56 2.59-2.325.52-5.15.78-8.47.78zm47.86-9.28c2.8 0 5.6-.44 8.4-1.32V85c-1.27.556-2.9 1.02-4.9 1.394s-4.07.56-6.22.56c-10.87 0-16.31-5.73-16.31-17.187v-29.1h-7.37V35.6l7.91-4.2 3.91-11.426h7.08v12.01h15.38v8.693h-15.38v28.91c0 2.766.69 4.81 2.08 6.127 1.38 1.32 3.2 1.978 5.45 1.978zM209.11 132.6c-2.19 0-4.2-.404-6.01-1.214-1.816-.81-3.34-2.057-4.57-3.738h-.37c.247 1.97.37 3.833.37 5.6v13.872h-5.106V98.28h4.153l.707 4.615h.245c1.31-1.847 2.84-3.18 4.58-4 1.74-.82 3.74-1.23 6-1.23 4.47 0 7.92 1.527 10.35 4.582 2.43 3.055 3.64 7.34 3.64 12.86 0 5.535-1.24 9.836-3.71 12.902-2.47 3.06-5.9 4.6-10.29 4.6zm-.74-30.6c-3.445 0-5.937.954-7.475 2.86-1.54 1.908-2.33 4.944-2.37 9.107v1.137c0 4.737.79 8.126 2.37 10.167 1.578 2.04 4.11 3.06 7.597 3.06 2.91 0 5.194-1.18 6.845-3.54 1.65-2.36 2.478-5.61 2.478-9.75 0-4.2-.825-7.43-2.476-9.67-1.65-2.24-3.98-3.37-6.97-3.37zm44.39 30l-1.02-4.8h-.25c-1.68 2.113-3.36 3.544-5.03 4.292-1.67.75-3.758 1.123-6.26 1.123-3.34 0-5.96-.86-7.86-2.584-1.897-1.72-2.845-4.17-2.845-7.35 0-6.81 5.443-10.37 16.333-10.7l5.722-.18v-2.09c0-2.64-.57-4.6-1.71-5.86-1.137-1.26-2.957-1.89-5.46-1.89-2.81 0-5.987.86-9.535 2.59l-1.57-3.9c1.66-.9 3.48-1.61 5.46-2.12s3.964-.77 5.953-.77c4.02 0 7 .9 8.936 2.68 1.94 1.79 2.907 4.65 2.907 8.58v23h-3.78zm-11.54-3.6c3.18 0 5.67-.87 7.49-2.614 1.81-1.743 2.72-4.183 2.72-7.32v-3.047l-5.108.21c-4.06.14-6.987.77-8.78 1.89-1.795 1.11-2.69 2.85-2.69 5.21 0 1.84.56 3.25 1.676 4.21 1.116.96 2.68 1.44 4.69 1.44zm53.43-30.115v3.23l-6.246.738c.574.718 1.087 1.656 1.538 2.815.453 1.16.678 2.466.678 3.922 0 3.302-1.127 5.937-3.383 7.906-2.257 1.97-5.353 2.953-9.29 2.953-1.006 0-1.95-.09-2.83-.25-2.175 1.15-3.26 2.59-3.26 4.33 0 .92.38 1.6 1.137 2.04.758.44 2.06.66 3.906.66h5.97c3.65 0 6.456.77 8.414 2.31 1.96 1.53 2.938 3.77 2.938 6.7 0 3.73-1.496 6.58-4.49 8.53-2.994 1.96-7.362 2.93-13.104 2.93-4.41 0-7.81-.82-10.2-2.46-2.39-1.64-3.583-3.96-3.583-6.95 0-2.05.657-3.83 1.97-5.327 1.312-1.495 3.157-2.51 5.536-3.044-.86-.39-1.58-.996-2.17-1.816-.58-.82-.87-1.773-.87-2.86 0-1.23.33-2.31.99-3.23s1.69-1.815 3.11-2.68c-1.74-.715-3.16-1.94-4.26-3.66-1.1-1.72-1.64-3.69-1.64-5.904 0-3.69 1.11-6.534 3.32-8.534s5.35-3 9.41-3c1.77 0 3.36.203 4.77.613h11.66zm-26.887 39.375c0 1.825.77 3.21 2.307 4.153 1.54.943 3.743 1.415 6.614 1.415 4.286 0 7.46-.64 9.52-1.923 2.062-1.28 3.092-3.02 3.092-5.214 0-1.82-.565-3.09-1.693-3.79-1.127-.7-3.25-1.06-6.367-1.06h-6.122c-2.317 0-4.122.56-5.414 1.66-1.29 1.11-1.936 2.7-1.936 4.77zm2.77-28.577c0 2.358.665 4.142 1.998 5.352s3.19 1.815 5.57 1.815c4.99 0 7.48-2.42 7.48-7.26 0-5.065-2.52-7.598-7.57-7.598-2.4 0-4.25.646-5.54 1.938-1.29 1.292-1.94 3.21-1.94 5.753zm45.28 23.532c-4.983 0-8.916-1.517-11.797-4.553-2.883-3.035-4.323-7.25-4.323-12.643 0-5.44 1.338-9.76 4.014-12.95 2.676-3.2 6.27-4.8 10.782-4.8 4.22 0 7.56 1.39 10.03 4.16 2.46 2.78 3.69 6.44 3.69 10.99v3.23h-23.22c.1 3.96 1.1 6.96 3 9.01 1.89 2.05 4.56 3.07 8.01 3.07 3.63 0 7.22-.76 10.76-2.28v4.55c-1.81.78-3.51 1.34-5.12 1.68-1.61.33-3.56.5-5.83.5zm-1.384-30.67c-2.71 0-4.87.883-6.48 2.646-1.61 1.77-2.56 4.21-2.85 7.33h17.62c0-3.22-.72-5.68-2.16-7.4-1.44-1.71-3.49-2.56-6.15-2.56zM8.8 24.058c.486 0 .956-.036 1.41-.108.454-.072.813-.147 1.08-.224v2.108c-.3.144-.74.263-1.32.357-.582.1-1.105.15-1.57.15-3.52 0-5.28-1.85-5.28-5.56V9.95H.516V8.62L3.12 7.473l1.163-3.885h1.594v4.217h5.28v2.14h-5.28v10.71c0 1.095.26 1.936.78 2.523.52.586 1.234.88 2.142.88zM27.375 26V14.23c0-1.484-.338-2.59-1.013-3.32-.675-.73-1.732-1.097-3.17-1.097-1.915 0-3.313.52-4.193 1.56-.88 1.04-1.32 2.746-1.32 5.114V26h-2.76V.168h2.75v7.82c0 .94-.05 1.72-.14 2.34h.16C18.23 9.454 19 8.765 20 8.26c1-.5 2.142-.75 3.426-.75 2.224 0 3.892.53 5.004 1.59s1.67 2.74 1.67 5.04V26h-2.75zm16.103.332c-2.69 0-4.812-.82-6.367-2.457-1.55-1.638-2.33-3.912-2.33-6.823 0-2.933.72-5.263 2.17-6.99 1.45-1.726 3.39-2.59 5.82-2.59 2.28 0 4.09.75 5.41 2.25 1.33 1.5 2 3.478 2 5.935V17.4H37.64c.055 2.136.595 3.758 1.62 4.865 1.022 1.106 2.464 1.66 4.323 1.66 1.953 0 3.89-.41 5.81-1.23v2.458c-.98.42-1.9.722-2.77.905-.866.183-1.915.274-3.144.274zM42.73 9.78c-1.46 0-2.625.476-3.494 1.428-.87.952-1.38 2.27-1.536 3.95h9.513c0-1.736-.388-3.067-1.162-3.99-.77-.926-1.88-1.388-3.32-1.388z" fill="#FFF" fill-rule="evenodd"/></svg>